<svg width="119" height="37" viewBox="0 0 119 37" fill="none" xmlns="http://www.w3.org/2000/svg">
<path d="M5.64 21.08C5.77333 21.8267 6.06667 22.48 6.52 23.04C6.97333 23.6 7.56 24.04 8.28 24.36C9.02667 24.6533 9.88 24.8 10.84 24.8C12.4133 24.8 13.5867 24.4533 14.36 23.76C15.1333 23.04 15.52 22.1733 15.52 21.16C15.52 20.36 15.28 19.6933 14.8 19.16C14.32 18.6267 13.64 18.1733 12.76 17.8C11.9067 17.4267 10.9067 17.0667 9.76 16.72C8.69333 16.4 7.62667 16.0533 6.56 15.68C5.52 15.3067 4.57333 14.84 3.72 14.28C2.89333 13.72 2.22667 13 1.72 12.12C1.24 11.2133 1 10.08 1 8.72C1 7.01333 1.41333 5.56 2.24 4.36C3.09333 3.16 4.25333 2.25333 5.72 1.64C7.18667 1.02667 8.88 0.719999 10.8 0.719999C12.4267 0.719999 13.8933 0.959999 15.2 1.44C16.5067 1.89333 17.6 2.57333 18.48 3.48C19.3867 4.36 20.0533 5.45333 20.48 6.76L15.48 8.12C15.3467 7.53333 15.0533 7.02667 14.6 6.6C14.1467 6.17333 13.5867 5.84 12.92 5.6C12.28 5.33333 11.6 5.2 10.88 5.2C10.08 5.17333 9.34667 5.29333 8.68 5.56C8.01333 5.82667 7.48 6.21333 7.08 6.72C6.68 7.22666 6.48 7.81333 6.48 8.48C6.48 9.22667 6.70667 9.82667 7.16 10.28C7.61333 10.7067 8.21333 11.08 8.96 11.4C9.70667 11.6933 10.5467 11.9867 11.48 12.28C12.5733 12.6 13.68 12.9733 14.8 13.4C15.9467 13.8 16.9867 14.32 17.92 14.96C18.8533 15.5733 19.6 16.36 20.16 17.32C20.7467 18.28 21.04 19.4933 21.04 20.96C21.04 22.5067 20.6667 23.9067 19.92 25.16C19.2 26.4133 18.1067 27.4133 16.64 28.16C15.1733 28.9067 13.3333 29.28 11.12 29.28C9.30667 29.28 7.65333 29.0133 6.16 28.48C4.69333 27.9467 3.48 27.1733 2.52 26.16C1.56 25.12 0.933333 23.8933 0.64 22.48L5.64 21.08Z" fill="#D77F75"/>
<path d="M44.6728 29H39.9928L39.6728 26.92C39.0061 27.6667 38.2061 28.2533 37.2728 28.68C36.3661 29.08 35.3928 29.28 34.3528 29.28C32.8061 29.28 31.4728 28.9467 30.3528 28.28C29.2328 27.6133 28.3661 26.6533 27.7528 25.4C27.1395 24.12 26.8328 22.5467 26.8328 20.68V9H31.9928V20.04C31.9928 21.56 32.2861 22.72 32.8728 23.52C33.4861 24.2933 34.4195 24.68 35.6728 24.68C36.9261 24.68 37.8861 24.28 38.5528 23.48C39.2195 22.68 39.5528 21.52 39.5528 20V9H44.6728V29ZM51.5738 9H56.2138L56.5738 11.04C57.2138 10.32 57.9871 9.76 58.8938 9.36C59.8271 8.93333 60.8271 8.72 61.8938 8.72C63.4671 8.72 64.8004 9.05333 65.8938 9.72C67.0138 10.3867 67.8671 11.36 68.4538 12.64C69.0671 13.8933 69.3738 15.4533 69.3738 17.32V29H64.2138V18C64.2138 16.4533 63.9071 15.2933 63.2938 14.52C62.6804 13.7467 61.7604 13.36 60.5338 13.36C59.2804 13.36 58.3204 13.76 57.6538 14.56C57.0138 15.3333 56.6938 16.4933 56.6938 18.04V29H51.5738V9Z" fill="#FAC700"/>
<path d="M75.9956 9H80.6356L80.9956 11.04C81.6356 10.32 82.409 9.76 83.3156 9.36C84.249 8.93333 85.249 8.72 86.3156 8.72C87.889 8.72 89.2223 9.05333 90.3156 9.72C91.4356 10.3867 92.289 11.36 92.8756 12.64C93.489 13.8933 93.7956 15.4533 93.7956 17.32V29H88.6356V18C88.6356 16.4533 88.329 15.2933 87.7156 14.52C87.1023 13.7467 86.1823 13.36 84.9556 13.36C83.7023 13.36 82.7423 13.76 82.0756 14.56C81.4356 15.3333 81.1156 16.4933 81.1156 18.04V29H75.9956V9ZM113.473 9H118.953L107.153 37H101.993L105.753 28.28L97.8734 9H103.593L108.473 22.16L113.473 9Z" fill="#587AAD"/>
</svg>
